<svg id="visual" viewBox="0 0 900 600" width="900" height="600" xmlns="http://www.w3.org/2000/svg" xmlns:xlink="http://www.w3.org/1999/xlink" version="1.1"><rect x="0" y="0" width="900" height="600" fill="#14293e"></rect><path d="M0 391L129 386L257 427L386 411L514 356L643 390L771 366L900 428L900 601L771 601L643 601L514 601L386 601L257 601L129 601L0 601Z" fill="#715df2"></path><path d="M0 461L129 452L257 470L386 415L514 417L643 411L771 409L900 428L900 601L771 601L643 601L514 601L386 601L257 601L129 601L0 601Z" fill="#5576fb"></path><path d="M0 510L129 500L257 445L386 486L514 469L643 465L771 467L900 495L900 601L771 601L643 601L514 601L386 601L257 601L129 601L0 601Z" fill="#408bfe"></path><path d="M0 529L129 486L257 504L386 514L514 519L643 515L771 540L900 519L900 601L771 601L643 601L514 601L386 601L257 601L129 601L0 601Z" fill="#3d9dfc"></path><path d="M0 568L129 565L257 549L386 573L514 547L643 546L771 559L900 533L900 601L771 601L643 601L514 601L386 601L257 601L129 601L0 601Z" fill="#4facf7"></path></svg>